<svg width="209" height="209" viewBox="0 0 209 209" fill="none" xmlns="http://www.w3.org/2000/svg">
<path fill-rule="evenodd" clip-rule="evenodd" d="M0 104.5C0 46.7773 0.806507 0 104.5 0C208.193 0 209 46.7773 209 104.5C209 162.223 208.193 209 104.5 209C0.806507 209 0 162.223 0 104.5Z" fill="#5541F0"/>
<path d="M147.476 103.145V103.779L160.849 90.3793C165.05 86.169 165.05 79.3634 160.849 75.1531L145.865 60.1577C141.663 55.9474 134.871 55.9474 130.669 60.1577L122.976 67.8669C122.458 67.8092 121.921 67.7708 121.384 67.7708H99.8954C92.7775 67.7708 86.9258 73.1537 86.1584 80.0747H86.0816V103.145C86.0816 107.393 89.5159 110.835 93.7559 110.835C97.996 110.835 101.43 107.393 101.43 103.145V89.3027V89.2835V86.2267H104.5H130.593C130.593 86.2267 130.593 86.2267 130.612 86.2267H132.128C140.608 86.2267 147.476 93.1092 147.476 101.607V103.145ZM107.57 92.3787V103.145C107.57 110.796 101.392 116.987 93.7559 116.987C86.12 116.987 79.9422 110.796 79.9422 103.145V80.3439C73.0545 81.5358 67.3179 86.5535 65.3609 93.4553L62.1953 104.529L48.1513 118.601C43.9496 122.812 43.9496 129.617 48.1513 133.828L63.1354 148.842C67.3371 153.053 74.1289 153.053 78.3306 148.842L85.5636 141.595C85.7363 141.595 85.9089 141.614 86.0816 141.614H116.779C121.863 141.614 125.988 137.48 125.988 132.386C125.988 131.309 125.796 130.271 125.47 129.31H125.988C131.072 129.31 135.197 125.176 135.197 120.082C135.197 117.621 134.238 115.391 132.665 113.738C137.596 112.776 141.318 108.431 141.337 103.202V103.125C141.318 97.2041 136.521 92.3979 130.593 92.3979H107.57V92.3787Z" fill="white"/>
</svg>
